<svg id="SvgjsSvg1016" width="288" height="288" xmlns="http://www.w3.org/2000/svg" version="1.1" xmlns:xlink="http://www.w3.org/1999/xlink" xmlns:svgjs="http://svgjs.com/svgjs">
  <defs id="SvgjsDefs1017"></defs>
  <g id="SvgjsG1018">
    <svg xmlns="http://www.w3.org/2000/svg" viewBox="0 0 47.5 47.5" width="288" height="288">
      <defs>
        <clipPath id="a">
          <path d="M0 38h38V0H0v38Z" fill="#000000" class="color000 svgShape"></path>
        </clipPath>
      </defs>
      <g clip-path="url(#a)" transform="matrix(1.25 0 0 -1.25 0 47.5)" fill="#000000" class="color000 svgShape">
        <path fill="#ffffff" d="M33 5a4 4 0 0 0-4-4H9a4 4 0 0 0-4 4v28a4 4 0 0 0 4 4h20a4 4 0 0 0 4-4V5Z" class="colore6e7e8 svgShape"></path>
        <path fill="#008000" d="M18.906 18.559c-.203.43-.363.902-.477 1.406-.112.504-.168 1.019-.168 1.543 0 .563.074 1.113.223 1.652.149.539.354 1.036.617 1.492.263.457.573.857.93 1.203.356.348.743.617 1.16.812.404.179.813.286 1.23.32.419.035.826.02 1.223-.031.403-.07.801-.2 1.195-.395.37-.194.692-.405.969-.633l.184.39c.262.516.504.901.727 1.156.223.254.463.448.72.578.259.13.557.233.898.312.341.08.772.137 1.292.168.361.021.765.03 1.21.031.447 0 .899-.008 1.356-.023.636-.023 1.257-.121 1.86-.297.605-.175 1.163-.434 1.672-.778.156-.122.302-.237.438-.344.3-.407.563-.949.789-1.629l.117-.352H28.48c.148.43.382 1.07.704 1.918.322.848.598 1.422.828 1.723.23.3.59.723 1.082 1.27.492.546.95.957 1.375 1.234.76.422 1.574.691 2.441.805.867.115 1.703.04 2.508-.222.806-.262 1.519-.693 2.14-1.293.621-.601 1.133-1.387 1.535-2.359.402-.972.604-2.098.604-3.379 0-1.239-.207-2.352-.622-3.336-.415-.986-.941-1.824-1.578-2.516-.637-.691-1.363-1.219-2.176-1.582-.813-.364-1.642-.542-2.485-.536a7.828 7.828 0 0 0-2.559.429 8.983 8.983 0 0 0-2.293 1.302 10.644 10.644 0 0 0-1.914 2.078 10.341 10.341 0 0 0-1.351 2.7 11.831 11.831 0 0 0-.469 2.882c-.011.557.011 1.055.067 1.496.055.44.145.848.269 1.223.148.3.316.579.504.836l-.258.078a5.933 5.933 0 0 1-1.672.235c-.684 0-1.32-.142-1.907-.426-.586-.283-1.097-.69-1.531-1.218-.435-.529-.773-1.16-1.016-1.894-.242-.736-.364-1.551-.364-2.446 0-.902.125-1.742.375-2.524.25-.78.59-1.457 1.02-2.03.316-.47.683-.867 1.098-1.192.417-.325.87-.58 1.36-.762l.05-.343c-.109-.179-.286-.371-.531-.578-.246-.207-.504-.361-.777-.461-.558-.21-1.153-.335-1.786-.378-.63-.043-1.232.004-1.805.14-.098.023-.195.052-.293.086.031.121.061.242.091.364.07.25.106.494.107.73a3.43 3.43 0 0 1-.499 1.891 4.44 4.44 0 0 1-1.302 1.398 5.013 5.013 0 0 1-1.608.711 6.565 6.565 0 0 1-1.668.268" class="color008000 svgShape"></path>
      </g>
    </svg>
  </g>
</svg>